<svg xmlns="http://www.w3.org/2000/svg" viewBox="0 0 48 48" width="48" height="48"><rect width="48" height="48" rx="10.6" fill="#FF441F"/><g transform="translate(7.080 16.854) scale(1.27266)" fill="#FFFFFF" fill-rule="evenodd"><path d="M20.558,4.386c-0.036,0.195,-0.093,0.422,-0.169,0.671c-0.076,0.249,-0.175,0.512,-0.291,0.779c-0.126,0.268,-0.257,0.520,-0.388,0.747c-0.129,0.224,-0.259,0.417,-0.384,0.573c-0.121,0.152,-0.234,0.264,-0.334,0.334c-0.075,0.052,-0.118,0.058,-0.132,0.058c-0.006,0,-0.012,-0.001,-0.018,-0.003c-0.012,-0.005,-0.054,-0.033,-0.073,-0.167c-0.017,-0.122,-0.007,-0.284,0.027,-0.479c0.036,-0.201,0.092,-0.429,0.169,-0.677c0.075,-0.247,0.174,-0.511,0.292,-0.781c0.116,-0.268,0.244,-0.518,0.380,-0.743c0.134,-0.225,0.266,-0.416,0.390,-0.567c0.120,-0.147,0.233,-0.258,0.335,-0.329c0.076,-0.052,0.118,-0.058,0.132,-0.058c0.007,0,0.012,0.001,0.017,0.003c0.012,0.005,0.054,0.033,0.073,0.167c0.016,0.122,0.007,0.281,-0.026,0.472M15.491,4.386c-0.036,0.195,-0.093,0.422,-0.169,0.671c-0.077,0.250,-0.175,0.513,-0.291,0.779c-0.126,0.269,-0.257,0.521,-0.388,0.747c-0.130,0.224,-0.259,0.417,-0.384,0.573c-0.121,0.152,-0.234,0.264,-0.335,0.334c-0.075,0.052,-0.117,0.058,-0.132,0.058c-0.006,0,-0.012,-0.001,-0.018,-0.003c-0.012,-0.005,-0.054,-0.033,-0.073,-0.167c-0.017,-0.122,-0.008,-0.283,0.027,-0.479c0.035,-0.200,0.092,-0.428,0.169,-0.677c0.075,-0.248,0.174,-0.511,0.292,-0.781c0.117,-0.268,0.245,-0.519,0.380,-0.743c0.135,-0.225,0.267,-0.416,0.391,-0.567c0.121,-0.147,0.234,-0.259,0.335,-0.329c0.075,-0.052,0.118,-0.058,0.132,-0.058c0.007,0,0.012,0.001,0.017,0.003c0.012,0.005,0.055,0.033,0.073,0.167c0.016,0.122,0.007,0.281,-0.026,0.472M10.001,4.336c-0.022,0.199,-0.065,0.426,-0.128,0.676c-0.063,0.249,-0.150,0.511,-0.258,0.779c-0.107,0.267,-0.221,0.518,-0.340,0.746c-0.116,0.223,-0.233,0.413,-0.349,0.565c-0.112,0.147,-0.218,0.258,-0.314,0.328c-0.071,0.051,-0.110,0.057,-0.124,0.057c-0.006,0,-0.011,-0.001,-0.017,-0.003c-0.012,-0.005,-0.057,-0.035,-0.080,-0.171c-0.021,-0.124,-0.023,-0.285,-0.006,-0.477c0.018,-0.195,0.058,-0.420,0.121,-0.668c0.062,-0.247,0.149,-0.510,0.258,-0.779c0.109,-0.270,0.223,-0.521,0.341,-0.746c0.115,-0.222,0.233,-0.415,0.349,-0.572c0.111,-0.151,0.218,-0.263,0.314,-0.333c0.071,-0.051,0.110,-0.057,0.124,-0.057c0.006,0,0.011,0.001,0.016,0.003c0.013,0.005,0.060,0.036,0.088,0.173c0.025,0.122,0.027,0.283,0.005,0.478M21.102,2.681c0.265,0,0.493,0.081,0.678,0.241c0.178,0.154,0.305,0.376,0.378,0.657c0.070,0.272,0.084,0.602,0.043,0.979c-0.041,0.373,-0.150,0.799,-0.324,1.265c-0.164,0.441,-0.352,0.829,-0.559,1.152c-0.099,0.157,-0.202,0.304,-0.307,0.440c-0.013,0.017,0.006,0.040,0.025,0.029c0.060,-0.032,0.120,-0.068,0.180,-0.107c0.135,-0.087,0.266,-0.182,0.389,-0.282c0.345,-0.279,0.596,-0.657,0.718,-1.083c0.072,-0.255,0.153,-0.509,0.241,-0.759c0.144,-0.411,0.298,-0.796,0.458,-1.142c0.158,-0.345,0.290,-0.603,0.392,-0.768c0.115,-0.187,0.277,-0.304,0.481,-0.347c0.191,-0.040,0.374,-0.037,0.542,0.007c0.172,0.046,0.312,0.132,0.417,0.254c0.114,0.133,0.139,0.284,0.071,0.438c-0.020,0.053,-0.073,0.174,-0.157,0.360c-0.084,0.187,-0.180,0.406,-0.290,0.670c-0.106,0.253,-0.215,0.528,-0.324,0.815c-0.106,0.282,-0.189,0.545,-0.247,0.783c-0.056,0.231,-0.078,0.423,-0.065,0.570c0.012,0.141,0.066,0.141,0.095,0.141c0.041,0,0.114,-0.019,0.227,-0.111c0.109,-0.090,0.224,-0.198,0.342,-0.324c0.118,-0.125,0.232,-0.261,0.338,-0.403c0.096,-0.128,0.179,-0.242,0.246,-0.339c0.058,-0.084,0.151,-0.132,0.255,-0.132c0.109,0,0.215,0.054,0.270,0.139c0.053,0.083,0.052,0.181,-0.004,0.270c-0.071,0.111,-0.196,0.298,-0.381,0.572c-0.183,0.270,-0.403,0.549,-0.653,0.829c-0.254,0.284,-0.531,0.536,-0.825,0.749c-0.309,0.224,-0.621,0.338,-0.928,0.338c-0.277,0,-0.484,-0.096,-0.615,-0.285c-0.119,-0.173,-0.179,-0.405,-0.179,-0.690v-0.045c0.000,-0.033,-0.038,-0.053,-0.065,-0.031c-0.058,0.046,-0.118,0.092,-0.179,0.138c-0.360,0.268,-0.776,0.495,-1.236,0.676c-0.411,0.161,-0.864,0.243,-1.346,0.243l-0.098,-0.001l-0.098,-0.003c-0.328,-0.000,-0.572,-0.103,-0.724,-0.306c-0.027,-0.035,-0.051,-0.072,-0.073,-0.110c-0.017,-0.030,-0.063,-0.025,-0.073,0.008c-0.049,0.164,-0.096,0.324,-0.139,0.476c-0.093,0.327,-0.173,0.610,-0.244,0.866c-0.070,0.256,-0.132,0.489,-0.182,0.695c-0.048,0.197,-0.082,0.358,-0.099,0.476l-0.001,0.004c-0.044,0.224,-0.196,0.303,-0.316,0.330c-0.053,0.011,-0.109,0.018,-0.165,0.018c-0.101,0,-0.209,-0.019,-0.319,-0.058c-0.167,-0.059,-0.317,-0.161,-0.447,-0.303c-0.134,-0.147,-0.202,-0.333,-0.202,-0.550c0,-0.044,0.011,-0.140,0.097,-0.495c0.064,-0.261,0.151,-0.587,0.259,-0.968c0.072,-0.258,0.155,-0.538,0.247,-0.839c0.010,-0.036,-0.030,-0.066,-0.061,-0.044c-0.320,0.218,-0.680,0.407,-1.073,0.561c-0.411,0.161,-0.864,0.243,-1.346,0.243c-0.064,0,-0.131,-0.001,-0.197,-0.004c-0.328,-0.000,-0.571,-0.103,-0.724,-0.306c-0.027,-0.035,-0.051,-0.072,-0.073,-0.110c-0.018,-0.030,-0.063,-0.024,-0.073,0.008c-0.049,0.165,-0.096,0.324,-0.140,0.476c-0.094,0.328,-0.174,0.612,-0.243,0.866c-0.070,0.256,-0.132,0.489,-0.183,0.695c-0.048,0.198,-0.082,0.358,-0.099,0.476l-0.000,0.004c-0.044,0.224,-0.196,0.303,-0.316,0.330c-0.053,0.011,-0.108,0.018,-0.164,0.018c-0.101,0,-0.209,-0.019,-0.319,-0.058c-0.167,-0.059,-0.317,-0.161,-0.447,-0.303c-0.134,-0.147,-0.202,-0.333,-0.202,-0.550c0,-0.044,0.010,-0.140,0.097,-0.495c0.064,-0.264,0.151,-0.589,0.259,-0.968c0.063,-0.224,0.133,-0.464,0.212,-0.723c0.011,-0.038,-0.036,-0.068,-0.066,-0.040c-0.134,0.122,-0.273,0.237,-0.415,0.341c-0.304,0.224,-0.615,0.338,-0.922,0.338c-0.277,0,-0.484,-0.096,-0.615,-0.285c-0.052,-0.076,-0.093,-0.164,-0.123,-0.264c-0.026,-0.088,-0.139,-0.115,-0.203,-0.048c-0.090,0.093,-0.189,0.179,-0.295,0.254c-0.138,0.098,-0.293,0.180,-0.460,0.244c-0.172,0.065,-0.359,0.099,-0.554,0.099c-0.264,0,-0.496,-0.080,-0.689,-0.239c-0.187,-0.153,-0.326,-0.371,-0.413,-0.648c-0.084,-0.268,-0.115,-0.597,-0.092,-0.979c0.023,-0.377,0.109,-0.801,0.255,-1.260c0.312,-0.951,0.719,-1.657,1.210,-2.100c0.500,-0.451,1.007,-0.680,1.508,-0.680c0.211,0,0.391,0.042,0.532,0.126c0.138,0.083,0.246,0.192,0.318,0.326c0.048,0.089,0.083,0.186,0.105,0.288c0.003,0.018,0.028,0.021,0.037,0.005c0.025,-0.045,0.049,-0.086,0.072,-0.123c0.115,-0.186,0.275,-0.303,0.474,-0.347c0.186,-0.040,0.369,-0.037,0.542,0.007c0.177,0.046,0.320,0.132,0.425,0.254c0.114,0.133,0.139,0.284,0.071,0.438c-0.019,0.052,-0.071,0.170,-0.157,0.360c-0.084,0.186,-0.182,0.411,-0.290,0.670c-0.107,0.256,-0.216,0.531,-0.324,0.815c-0.106,0.282,-0.190,0.546,-0.247,0.783c-0.056,0.231,-0.078,0.423,-0.065,0.570c0.012,0.141,0.066,0.141,0.094,0.141c0.041,0,0.114,-0.019,0.227,-0.111c0.062,-0.051,0.127,-0.109,0.193,-0.173c0.257,-0.247,0.429,-0.518,0.545,-0.855c0.153,-0.446,0.314,-0.887,0.479,-1.313c0.176,-0.452,0.348,-0.858,0.511,-1.206c0.085,-0.180,0.220,-0.302,0.399,-0.360c0.168,-0.054,0.341,-0.066,0.511,-0.034c0.169,0.032,0.318,0.099,0.441,0.201c0.054,0.044,0.098,0.093,0.131,0.144c0.008,0.013,0.018,0.015,0.030,0.003c0.145,-0.134,0.306,-0.258,0.480,-0.368c0.254,-0.162,0.541,-0.243,0.855,-0.243c0.264,0,0.493,0.081,0.677,0.241c0.178,0.155,0.306,0.376,0.378,0.657c0.070,0.272,0.084,0.602,0.043,0.979c-0.041,0.372,-0.150,0.799,-0.324,1.265c-0.164,0.441,-0.353,0.829,-0.559,1.152c-0.099,0.157,-0.202,0.304,-0.307,0.440c-0.013,0.017,0.006,0.040,0.025,0.029c0.060,-0.032,0.120,-0.068,0.180,-0.107c0.097,-0.062,0.191,-0.129,0.282,-0.198c0.345,-0.262,0.603,-0.622,0.741,-1.031l0.054,-0.159c0.162,-0.480,0.334,-0.952,0.510,-1.405c0.176,-0.452,0.349,-0.859,0.512,-1.206c0.084,-0.180,0.219,-0.301,0.399,-0.360c0.168,-0.054,0.341,-0.066,0.511,-0.034c0.169,0.032,0.317,0.099,0.441,0.200c0.054,0.045,0.098,0.093,0.131,0.144c0.008,0.013,0.018,0.015,0.030,0.003c0.145,-0.134,0.306,-0.258,0.480,-0.368c0.254,-0.162,0.542,-0.244,0.855,-0.244ZM4.501,0.432c0.380,0,0.761,0.044,1.133,0.130c0.374,0.087,0.713,0.220,1.008,0.394c0.298,0.176,0.543,0.398,0.728,0.659c0.188,0.265,0.283,0.577,0.283,0.925c0,0.375,-0.083,0.727,-0.249,1.046c-0.163,0.315,-0.389,0.604,-0.669,0.857c-0.277,0.251,-0.607,0.472,-0.979,0.658c-0.306,0.153,-0.632,0.283,-0.971,0.388c-0.021,0.006,-0.029,0.018,-0.028,0.039c0.007,0.166,0.019,0.330,0.036,0.488c0.019,0.181,0.044,0.358,0.075,0.526c0.030,0.164,0.067,0.325,0.108,0.477c0.032,0.117,0.068,0.232,0.107,0.340c0.024,0.069,0.050,0.137,0.076,0.200c0.053,0.128,0.111,0.250,0.173,0.364c0.060,0.111,0.127,0.218,0.196,0.315c0.067,0.094,0.140,0.184,0.215,0.265c0.073,0.079,0.151,0.152,0.231,0.217c0.077,0.063,0.160,0.120,0.244,0.169c0.081,0.048,0.167,0.090,0.255,0.124c0.086,0.033,0.175,0.061,0.265,0.081c0.090,0.019,0.183,0.032,0.276,0.038c0.093,0.005,0.190,0.004,0.288,-0.003c0.098,-0.008,0.199,-0.024,0.300,-0.048c0.102,-0.023,0.207,-0.055,0.311,-0.093c0.106,-0.039,0.214,-0.088,0.321,-0.142c0.040,-0.020,0.081,-0.043,0.122,-0.066c0.132,-0.075,0.302,-0.039,0.391,0.083c0.089,0.122,0.069,0.292,-0.045,0.391c-0.056,0.048,-0.113,0.096,-0.17,0.141c-0.136,0.110,-0.273,0.212,-0.407,0.304c-0.127,0.086,-0.256,0.167,-0.384,0.239c-0.063,0.036,-0.131,0.071,-0.199,0.105c-0.131,0.065,-0.263,0.123,-0.394,0.171c-0.130,0.048,-0.261,0.088,-0.389,0.118c-0.127,0.030,-0.255,0.052,-0.381,0.064c-0.089,0.009,-0.179,0.013,-0.266,0.013c-0.035,0,-0.070,-0.000,-0.106,-0.002c-0.121,-0.005,-0.241,-0.019,-0.358,-0.041c-0.057,-0.011,-0.116,-0.024,-0.173,-0.040c-0.055,-0.014,-0.111,-0.032,-0.168,-0.053c-0.108,-0.038,-0.216,-0.086,-0.319,-0.142c-0.101,-0.054,-0.200,-0.118,-0.295,-0.188c-0.076,-0.056,-0.151,-0.119,-0.222,-0.185c-0.085,-0.079,-0.168,-0.167,-0.247,-0.261c-0.077,-0.092,-0.152,-0.193,-0.221,-0.298c-0.069,-0.104,-0.135,-0.216,-0.195,-0.332c-0.060,-0.115,-0.117,-0.238,-0.169,-0.364c-0.051,-0.125,-0.099,-0.258,-0.143,-0.395c-0.042,-0.135,-0.082,-0.277,-0.116,-0.425c-0.034,-0.146,-0.064,-0.299,-0.089,-0.452c-0.022,-0.136,-0.041,-0.277,-0.055,-0.420c-0.004,-0.043,-0.066,-0.049,-0.079,-0.006c-0.054,0.186,-0.103,0.368,-0.146,0.541c-0.054,0.217,-0.104,0.415,-0.150,0.592c-0.044,0.173,-0.075,0.314,-0.093,0.416c-0.036,0.181,-0.156,0.295,-0.349,0.332c-0.165,0.032,-0.343,0.018,-0.526,-0.039c-0.181,-0.058,-0.345,-0.158,-0.489,-0.299c-0.150,-0.147,-0.227,-0.333,-0.227,-0.552c0,-0.178,0.045,-0.460,0.138,-0.861c0.090,-0.391,0.221,-0.855,0.390,-1.380c0.166,-0.520,0.369,-1.093,0.601,-1.703c0.199,-0.524,0.423,-1.051,0.665,-1.572c0.079,-0.170,0.243,-0.287,0.433,-0.309c0.428,-0.049,0.800,-0.036,1.115,0.036c0.189,0.044,0.291,0.247,0.212,0.422c-0.203,0.446,-0.390,0.892,-0.558,1.326c-0.135,0.351,-0.265,0.698,-0.388,1.036c-0.011,0.033,0.022,0.064,0.055,0.049c0.163,-0.073,0.324,-0.161,0.482,-0.260c0.258,-0.163,0.493,-0.358,0.699,-0.580c0.205,-0.221,0.373,-0.470,0.499,-0.741c0.124,-0.268,0.188,-0.560,0.188,-0.867c0,-0.395,-0.111,-0.687,-0.330,-0.867c-0.221,-0.182,-0.534,-0.275,-0.929,-0.275c-0.420,0,-0.804,0.098,-1.142,0.292c-0.346,0.198,-0.646,0.442,-0.890,0.725c-0.246,0.285,-0.440,0.589,-0.576,0.905c-0.134,0.312,-0.203,0.587,-0.203,0.815c0,0.163,-0.087,0.281,-0.246,0.332c-0.139,0.044,-0.293,0.038,-0.451,-0.019c-0.151,-0.055,-0.292,-0.165,-0.418,-0.326c-0.126,-0.161,-0.190,-0.380,-0.190,-0.651c0,-0.236,0.090,-0.513,0.277,-0.849c0.181,-0.327,0.451,-0.646,0.799,-0.947c0.347,-0.300,0.786,-0.561,1.305,-0.775c0.521,-0.215,1.125,-0.324,1.792,-0.324ZM25.207,0.183c0.582,0,1.053,0.465,1.053,1.039c0,0.573,-0.471,1.039,-1.053,1.039c-0.582,0,-1.053,-0.465,-1.053,-1.039c0,-0.573,0.471,-1.039,1.053,-1.039Z"/></g></svg>